<mxfile host="app.diagrams.net" modified="2024-05-23T00:08:26.880Z" agent="Mozilla/5.0 (Windows NT 10.0; Win64; x64) AppleWebKit/537.36 (KHTML, like Gecko) Chrome/125.0.0.0 Safari/537.36" etag="HSjUUDrkKhhPHDjb8MXX" version="24.4.6" type="device">
  <diagram name="Page-1" id="zEqGBNIDYR8h9pFsUI42">
    <mxGraphModel dx="1233" dy="702" grid="1" gridSize="10" guides="1" tooltips="1" connect="1" arrows="1" fold="1" page="1" pageScale="1" pageWidth="850" pageHeight="1100" math="0" shadow="0">
      <root>
        <mxCell id="0" />
        <mxCell id="1" parent="0" />
        <mxCell id="m1grjG1mhNCWA4DFV6zn-3" value="" style="edgeStyle=orthogonalEdgeStyle;rounded=0;orthogonalLoop=1;jettySize=auto;html=1;" edge="1" parent="1" source="m1grjG1mhNCWA4DFV6zn-1" target="m1grjG1mhNCWA4DFV6zn-2">
          <mxGeometry relative="1" as="geometry" />
        </mxCell>
        <mxCell id="m1grjG1mhNCWA4DFV6zn-1" value="public static boolean checkCart(List &amp;lt;Item&amp;gt; allItems,&lt;div&gt;int payment)&lt;/div&gt;" style="ellipse;whiteSpace=wrap;html=1;align=center;fontColor=default;" vertex="1" parent="1">
          <mxGeometry x="251" y="10" width="310" height="70" as="geometry" />
        </mxCell>
        <mxCell id="m1grjG1mhNCWA4DFV6zn-5" value="true" style="edgeStyle=orthogonalEdgeStyle;rounded=0;orthogonalLoop=1;jettySize=auto;html=1;" edge="1" parent="1" source="m1grjG1mhNCWA4DFV6zn-2" target="m1grjG1mhNCWA4DFV6zn-4">
          <mxGeometry relative="1" as="geometry" />
        </mxCell>
        <mxCell id="m1grjG1mhNCWA4DFV6zn-7" value="false" style="edgeStyle=orthogonalEdgeStyle;rounded=0;orthogonalLoop=1;jettySize=auto;html=1;" edge="1" parent="1" source="m1grjG1mhNCWA4DFV6zn-2" target="m1grjG1mhNCWA4DFV6zn-6">
          <mxGeometry relative="1" as="geometry" />
        </mxCell>
        <mxCell id="m1grjG1mhNCWA4DFV6zn-2" value="allItems==null" style="rhombus;whiteSpace=wrap;html=1;" vertex="1" parent="1">
          <mxGeometry x="359" y="110" width="94" height="80" as="geometry" />
        </mxCell>
        <mxCell id="m1grjG1mhNCWA4DFV6zn-4" value="throw new RuntimeException&lt;div&gt;(&quot;allItems list can&#39;t be null!&#39;)&lt;/div&gt;" style="ellipse;whiteSpace=wrap;html=1;" vertex="1" parent="1">
          <mxGeometry x="150" y="110" width="122" height="80" as="geometry" />
        </mxCell>
        <mxCell id="m1grjG1mhNCWA4DFV6zn-9" value="" style="edgeStyle=orthogonalEdgeStyle;rounded=0;orthogonalLoop=1;jettySize=auto;html=1;" edge="1" parent="1" source="m1grjG1mhNCWA4DFV6zn-6" target="m1grjG1mhNCWA4DFV6zn-8">
          <mxGeometry relative="1" as="geometry" />
        </mxCell>
        <mxCell id="m1grjG1mhNCWA4DFV6zn-6" value="float sum = 0" style="ellipse;whiteSpace=wrap;html=1;" vertex="1" parent="1">
          <mxGeometry x="540" y="110" width="80" height="80" as="geometry" />
        </mxCell>
        <mxCell id="m1grjG1mhNCWA4DFV6zn-13" value="" style="edgeStyle=orthogonalEdgeStyle;rounded=0;orthogonalLoop=1;jettySize=auto;html=1;" edge="1" parent="1" source="m1grjG1mhNCWA4DFV6zn-8" target="m1grjG1mhNCWA4DFV6zn-12">
          <mxGeometry relative="1" as="geometry" />
        </mxCell>
        <mxCell id="m1grjG1mhNCWA4DFV6zn-8" value="int i=0;" style="ellipse;whiteSpace=wrap;html=1;" vertex="1" parent="1">
          <mxGeometry x="460" y="230" width="80" height="30" as="geometry" />
        </mxCell>
        <mxCell id="m1grjG1mhNCWA4DFV6zn-15" value="false" style="edgeStyle=orthogonalEdgeStyle;rounded=0;orthogonalLoop=1;jettySize=auto;html=1;" edge="1" parent="1" source="m1grjG1mhNCWA4DFV6zn-12" target="m1grjG1mhNCWA4DFV6zn-14">
          <mxGeometry relative="1" as="geometry" />
        </mxCell>
        <mxCell id="m1grjG1mhNCWA4DFV6zn-24" value="true" style="edgeStyle=orthogonalEdgeStyle;rounded=0;orthogonalLoop=1;jettySize=auto;html=1;" edge="1" parent="1" source="m1grjG1mhNCWA4DFV6zn-12" target="m1grjG1mhNCWA4DFV6zn-23">
          <mxGeometry relative="1" as="geometry" />
        </mxCell>
        <mxCell id="m1grjG1mhNCWA4DFV6zn-12" value="i&amp;lt;allItems.size()" style="rhombus;whiteSpace=wrap;html=1;" vertex="1" parent="1">
          <mxGeometry x="445" y="300" width="110" height="70" as="geometry" />
        </mxCell>
        <mxCell id="m1grjG1mhNCWA4DFV6zn-20" value="true" style="edgeStyle=orthogonalEdgeStyle;rounded=0;orthogonalLoop=1;jettySize=auto;html=1;" edge="1" parent="1" source="m1grjG1mhNCWA4DFV6zn-14" target="m1grjG1mhNCWA4DFV6zn-19">
          <mxGeometry relative="1" as="geometry" />
        </mxCell>
        <mxCell id="m1grjG1mhNCWA4DFV6zn-22" value="false" style="edgeStyle=orthogonalEdgeStyle;rounded=0;orthogonalLoop=1;jettySize=auto;html=1;" edge="1" parent="1" source="m1grjG1mhNCWA4DFV6zn-14" target="m1grjG1mhNCWA4DFV6zn-21">
          <mxGeometry relative="1" as="geometry" />
        </mxCell>
        <mxCell id="m1grjG1mhNCWA4DFV6zn-14" value="sum&amp;lt;=payment" style="rhombus;whiteSpace=wrap;html=1;" vertex="1" parent="1">
          <mxGeometry x="272" y="230" width="110" height="70" as="geometry" />
        </mxCell>
        <mxCell id="m1grjG1mhNCWA4DFV6zn-19" value="true" style="ellipse;whiteSpace=wrap;html=1;" vertex="1" parent="1">
          <mxGeometry x="160" y="250" width="60" height="30" as="geometry" />
        </mxCell>
        <mxCell id="m1grjG1mhNCWA4DFV6zn-21" value="false" style="ellipse;whiteSpace=wrap;html=1;" vertex="1" parent="1">
          <mxGeometry x="220" y="310" width="70" height="30" as="geometry" />
        </mxCell>
        <mxCell id="m1grjG1mhNCWA4DFV6zn-26" value="" style="edgeStyle=orthogonalEdgeStyle;rounded=0;orthogonalLoop=1;jettySize=auto;html=1;" edge="1" parent="1" source="m1grjG1mhNCWA4DFV6zn-23" target="m1grjG1mhNCWA4DFV6zn-25">
          <mxGeometry relative="1" as="geometry">
            <Array as="points">
              <mxPoint x="585" y="370" />
            </Array>
          </mxGeometry>
        </mxCell>
        <mxCell id="m1grjG1mhNCWA4DFV6zn-23" value="Item item = allItems.get(i)" style="ellipse;whiteSpace=wrap;html=1;" vertex="1" parent="1">
          <mxGeometry x="660" y="295" width="80" height="80" as="geometry" />
        </mxCell>
        <mxCell id="m1grjG1mhNCWA4DFV6zn-30" value="true" style="edgeStyle=orthogonalEdgeStyle;rounded=0;orthogonalLoop=1;jettySize=auto;html=1;" edge="1" parent="1" source="m1grjG1mhNCWA4DFV6zn-25" target="m1grjG1mhNCWA4DFV6zn-29">
          <mxGeometry relative="1" as="geometry" />
        </mxCell>
        <mxCell id="m1grjG1mhNCWA4DFV6zn-25" value="Item.getName()== null || item.getName().length()==null" style="rhombus;whiteSpace=wrap;html=1;" vertex="1" parent="1">
          <mxGeometry x="445" y="390" width="280" height="80" as="geometry" />
        </mxCell>
        <mxCell id="m1grjG1mhNCWA4DFV6zn-32" value="" style="edgeStyle=orthogonalEdgeStyle;rounded=0;orthogonalLoop=1;jettySize=auto;html=1;entryX=0.799;entryY=0.651;entryDx=0;entryDy=0;entryPerimeter=0;" edge="1" parent="1" source="m1grjG1mhNCWA4DFV6zn-29" target="m1grjG1mhNCWA4DFV6zn-31">
          <mxGeometry relative="1" as="geometry">
            <Array as="points">
              <mxPoint x="498" y="520" />
              <mxPoint x="498" y="513" />
            </Array>
          </mxGeometry>
        </mxCell>
        <mxCell id="m1grjG1mhNCWA4DFV6zn-29" value="item.setName(&quot;Unknown&quot;)" style="ellipse;whiteSpace=wrap;html=1;" vertex="1" parent="1">
          <mxGeometry x="590" y="510" width="167" height="40" as="geometry" />
        </mxCell>
        <mxCell id="m1grjG1mhNCWA4DFV6zn-38" value="false" style="edgeStyle=orthogonalEdgeStyle;rounded=0;orthogonalLoop=1;jettySize=auto;html=1;" edge="1" parent="1" source="m1grjG1mhNCWA4DFV6zn-31" target="m1grjG1mhNCWA4DFV6zn-37">
          <mxGeometry relative="1" as="geometry" />
        </mxCell>
        <mxCell id="m1grjG1mhNCWA4DFV6zn-40" value="true" style="edgeStyle=orthogonalEdgeStyle;rounded=0;orthogonalLoop=1;jettySize=auto;html=1;" edge="1" parent="1" source="m1grjG1mhNCWA4DFV6zn-31" target="m1grjG1mhNCWA4DFV6zn-39">
          <mxGeometry relative="1" as="geometry" />
        </mxCell>
        <mxCell id="m1grjG1mhNCWA4DFV6zn-31" value="item.getBarcode()!=null" style="rhombus;whiteSpace=wrap;html=1;" vertex="1" parent="1">
          <mxGeometry x="199" y="480" width="160" height="50" as="geometry" />
        </mxCell>
        <mxCell id="m1grjG1mhNCWA4DFV6zn-35" value="false" style="endArrow=classic;html=1;rounded=0;exitX=0;exitY=0.5;exitDx=0;exitDy=0;" edge="1" parent="1" source="m1grjG1mhNCWA4DFV6zn-25" target="m1grjG1mhNCWA4DFV6zn-31">
          <mxGeometry width="50" height="50" relative="1" as="geometry">
            <mxPoint x="410" y="590" as="sourcePoint" />
            <mxPoint x="460" y="540" as="targetPoint" />
          </mxGeometry>
        </mxCell>
        <mxCell id="m1grjG1mhNCWA4DFV6zn-37" value="throw new RuntimeException(&quot;No Barcode&quot;)" style="ellipse;whiteSpace=wrap;html=1;" vertex="1" parent="1">
          <mxGeometry x="330" y="570" width="260" height="40" as="geometry" />
        </mxCell>
        <mxCell id="m1grjG1mhNCWA4DFV6zn-42" value="" style="edgeStyle=orthogonalEdgeStyle;rounded=0;orthogonalLoop=1;jettySize=auto;html=1;" edge="1" parent="1" source="m1grjG1mhNCWA4DFV6zn-39" target="m1grjG1mhNCWA4DFV6zn-41">
          <mxGeometry relative="1" as="geometry" />
        </mxCell>
        <mxCell id="m1grjG1mhNCWA4DFV6zn-39" value="String allowed = &quot;0123456789&quot;" style="ellipse;whiteSpace=wrap;html=1;" vertex="1" parent="1">
          <mxGeometry x="10" y="482.5" width="140" height="47.5" as="geometry" />
        </mxCell>
        <mxCell id="m1grjG1mhNCWA4DFV6zn-44" value="" style="edgeStyle=orthogonalEdgeStyle;rounded=0;orthogonalLoop=1;jettySize=auto;html=1;" edge="1" parent="1" source="m1grjG1mhNCWA4DFV6zn-41" target="m1grjG1mhNCWA4DFV6zn-43">
          <mxGeometry relative="1" as="geometry" />
        </mxCell>
        <mxCell id="m1grjG1mhNCWA4DFV6zn-41" value="char chars[] = item getBarcode().toCharArray()" style="ellipse;whiteSpace=wrap;html=1;" vertex="1" parent="1">
          <mxGeometry x="10" y="560" width="170" height="60" as="geometry" />
        </mxCell>
        <mxCell id="m1grjG1mhNCWA4DFV6zn-46" value="" style="edgeStyle=orthogonalEdgeStyle;rounded=0;orthogonalLoop=1;jettySize=auto;html=1;" edge="1" parent="1" source="m1grjG1mhNCWA4DFV6zn-43" target="m1grjG1mhNCWA4DFV6zn-45">
          <mxGeometry relative="1" as="geometry" />
        </mxCell>
        <mxCell id="m1grjG1mhNCWA4DFV6zn-43" value="j=0" style="ellipse;whiteSpace=wrap;html=1;" vertex="1" parent="1">
          <mxGeometry x="60" y="640" width="70" height="30" as="geometry" />
        </mxCell>
        <mxCell id="m1grjG1mhNCWA4DFV6zn-48" value="true" style="edgeStyle=orthogonalEdgeStyle;rounded=0;orthogonalLoop=1;jettySize=auto;html=1;" edge="1" parent="1" source="m1grjG1mhNCWA4DFV6zn-45" target="m1grjG1mhNCWA4DFV6zn-47">
          <mxGeometry relative="1" as="geometry" />
        </mxCell>
        <mxCell id="m1grjG1mhNCWA4DFV6zn-61" value="" style="edgeStyle=orthogonalEdgeStyle;rounded=0;orthogonalLoop=1;jettySize=auto;html=1;" edge="1" parent="1" source="m1grjG1mhNCWA4DFV6zn-45" target="m1grjG1mhNCWA4DFV6zn-60">
          <mxGeometry relative="1" as="geometry" />
        </mxCell>
        <mxCell id="m1grjG1mhNCWA4DFV6zn-45" value="j&amp;gt;item.getBarcode().lenght" style="rhombus;whiteSpace=wrap;html=1;" vertex="1" parent="1">
          <mxGeometry x="80" y="725" width="190" height="45" as="geometry" />
        </mxCell>
        <mxCell id="m1grjG1mhNCWA4DFV6zn-50" value="" style="edgeStyle=orthogonalEdgeStyle;rounded=0;orthogonalLoop=1;jettySize=auto;html=1;" edge="1" parent="1" source="m1grjG1mhNCWA4DFV6zn-47" target="m1grjG1mhNCWA4DFV6zn-49">
          <mxGeometry relative="1" as="geometry" />
        </mxCell>
        <mxCell id="m1grjG1mhNCWA4DFV6zn-47" value="char c = item.getBarcode().charAt(j)" style="ellipse;whiteSpace=wrap;html=1;" vertex="1" parent="1">
          <mxGeometry x="30" y="820" width="170" height="50" as="geometry" />
        </mxCell>
        <mxCell id="m1grjG1mhNCWA4DFV6zn-52" value="true" style="edgeStyle=orthogonalEdgeStyle;rounded=0;orthogonalLoop=1;jettySize=auto;html=1;" edge="1" parent="1" source="m1grjG1mhNCWA4DFV6zn-49" target="m1grjG1mhNCWA4DFV6zn-51">
          <mxGeometry relative="1" as="geometry">
            <Array as="points">
              <mxPoint x="115" y="960" />
              <mxPoint x="230" y="960" />
            </Array>
          </mxGeometry>
        </mxCell>
        <mxCell id="m1grjG1mhNCWA4DFV6zn-49" value="allowed.indexOf(c) == -1" style="rhombus;whiteSpace=wrap;html=1;" vertex="1" parent="1">
          <mxGeometry x="29" y="890" width="170" height="60" as="geometry" />
        </mxCell>
        <mxCell id="m1grjG1mhNCWA4DFV6zn-54" value="" style="edgeStyle=orthogonalEdgeStyle;rounded=0;orthogonalLoop=1;jettySize=auto;html=1;" edge="1" parent="1" source="m1grjG1mhNCWA4DFV6zn-51" target="m1grjG1mhNCWA4DFV6zn-53">
          <mxGeometry relative="1" as="geometry" />
        </mxCell>
        <mxCell id="m1grjG1mhNCWA4DFV6zn-51" value="throw nes RuntimeException&lt;br&gt;(&#39;Invalid character in item barcode&quot;" style="ellipse;whiteSpace=wrap;html=1;" vertex="1" parent="1">
          <mxGeometry x="100" y="980" width="220" height="40" as="geometry" />
        </mxCell>
        <mxCell id="m1grjG1mhNCWA4DFV6zn-53" value="j++" style="ellipse;whiteSpace=wrap;html=1;" vertex="1" parent="1">
          <mxGeometry x="190" y="1040" width="40" height="30" as="geometry" />
        </mxCell>
        <mxCell id="m1grjG1mhNCWA4DFV6zn-55" value="false" style="endArrow=classic;html=1;rounded=0;entryX=0;entryY=0.5;entryDx=0;entryDy=0;exitX=0;exitY=0.5;exitDx=0;exitDy=0;" edge="1" parent="1" source="m1grjG1mhNCWA4DFV6zn-49" target="m1grjG1mhNCWA4DFV6zn-53">
          <mxGeometry width="50" height="50" relative="1" as="geometry">
            <mxPoint x="40" y="1055" as="sourcePoint" />
            <mxPoint x="79" y="1010" as="targetPoint" />
            <Array as="points">
              <mxPoint x="30" y="1000" />
              <mxPoint x="30" y="1055" />
            </Array>
          </mxGeometry>
        </mxCell>
        <mxCell id="m1grjG1mhNCWA4DFV6zn-56" value="" style="endArrow=classic;html=1;rounded=0;exitX=1;exitY=0.5;exitDx=0;exitDy=0;entryX=1;entryY=0.5;entryDx=0;entryDy=0;" edge="1" parent="1" source="m1grjG1mhNCWA4DFV6zn-53" target="m1grjG1mhNCWA4DFV6zn-43">
          <mxGeometry width="50" height="50" relative="1" as="geometry">
            <mxPoint x="259.5000000000084" y="1055" as="sourcePoint" />
            <mxPoint x="320" y="640" as="targetPoint" />
            <Array as="points">
              <mxPoint x="340" y="1055" />
              <mxPoint x="340" y="655" />
            </Array>
          </mxGeometry>
        </mxCell>
        <mxCell id="m1grjG1mhNCWA4DFV6zn-63" value="true" style="edgeStyle=orthogonalEdgeStyle;rounded=0;orthogonalLoop=1;jettySize=auto;html=1;" edge="1" parent="1" source="m1grjG1mhNCWA4DFV6zn-60" target="m1grjG1mhNCWA4DFV6zn-62">
          <mxGeometry relative="1" as="geometry" />
        </mxCell>
        <mxCell id="m1grjG1mhNCWA4DFV6zn-65" value="false" style="edgeStyle=orthogonalEdgeStyle;rounded=0;orthogonalLoop=1;jettySize=auto;html=1;" edge="1" parent="1" source="m1grjG1mhNCWA4DFV6zn-60" target="m1grjG1mhNCWA4DFV6zn-64">
          <mxGeometry relative="1" as="geometry" />
        </mxCell>
        <mxCell id="m1grjG1mhNCWA4DFV6zn-60" value="item getDiscount() &amp;gt; 0" style="rhombus;whiteSpace=wrap;html=1;" vertex="1" parent="1">
          <mxGeometry x="395" y="722.5" width="145" height="50" as="geometry" />
        </mxCell>
        <mxCell id="m1grjG1mhNCWA4DFV6zn-68" value="" style="edgeStyle=orthogonalEdgeStyle;rounded=0;orthogonalLoop=1;jettySize=auto;html=1;" edge="1" parent="1" source="m1grjG1mhNCWA4DFV6zn-62" target="m1grjG1mhNCWA4DFV6zn-66">
          <mxGeometry relative="1" as="geometry">
            <Array as="points">
              <mxPoint x="685" y="790" />
              <mxPoint x="685" y="790" />
            </Array>
          </mxGeometry>
        </mxCell>
        <mxCell id="m1grjG1mhNCWA4DFV6zn-62" value="sum += item.getPrice()&lt;div&gt;*Item.getdiscount()&lt;/div&gt;" style="ellipse;whiteSpace=wrap;html=1;" vertex="1" parent="1">
          <mxGeometry x="590" y="727.5" width="160" height="40" as="geometry" />
        </mxCell>
        <mxCell id="m1grjG1mhNCWA4DFV6zn-67" value="" style="edgeStyle=orthogonalEdgeStyle;rounded=0;orthogonalLoop=1;jettySize=auto;html=1;" edge="1" parent="1" source="m1grjG1mhNCWA4DFV6zn-64" target="m1grjG1mhNCWA4DFV6zn-66">
          <mxGeometry relative="1" as="geometry" />
        </mxCell>
        <mxCell id="m1grjG1mhNCWA4DFV6zn-64" value="sum+= item.getPrice()" style="ellipse;whiteSpace=wrap;html=1;" vertex="1" parent="1">
          <mxGeometry x="388.75" y="840" width="157.5" height="40" as="geometry" />
        </mxCell>
        <mxCell id="m1grjG1mhNCWA4DFV6zn-74" value="true" style="edgeStyle=orthogonalEdgeStyle;rounded=0;orthogonalLoop=1;jettySize=auto;html=1;" edge="1" parent="1" source="m1grjG1mhNCWA4DFV6zn-66" target="m1grjG1mhNCWA4DFV6zn-73">
          <mxGeometry relative="1" as="geometry">
            <Array as="points">
              <mxPoint x="610" y="940" />
              <mxPoint x="585" y="940" />
            </Array>
          </mxGeometry>
        </mxCell>
        <mxCell id="m1grjG1mhNCWA4DFV6zn-76" value="false" style="edgeStyle=orthogonalEdgeStyle;rounded=0;orthogonalLoop=1;jettySize=auto;html=1;" edge="1" parent="1" source="m1grjG1mhNCWA4DFV6zn-66" target="m1grjG1mhNCWA4DFV6zn-75">
          <mxGeometry relative="1" as="geometry">
            <Array as="points">
              <mxPoint x="740" y="930" />
              <mxPoint x="740" y="930" />
            </Array>
          </mxGeometry>
        </mxCell>
        <mxCell id="m1grjG1mhNCWA4DFV6zn-66" value="item getPrice() &amp;gt; 300 &amp;amp;&amp;amp; item.getDiscount&amp;gt;0 &amp;amp;&amp;amp; item.getBarcode().charAt(0)==&#39;0&#39;" style="rhombus;whiteSpace=wrap;html=1;" vertex="1" parent="1">
          <mxGeometry x="570" y="800" width="230" height="120" as="geometry" />
        </mxCell>
        <mxCell id="m1grjG1mhNCWA4DFV6zn-69" value="" style="endArrow=classic;html=1;rounded=0;exitX=1;exitY=0.5;exitDx=0;exitDy=0;entryX=1;entryY=0.5;entryDx=0;entryDy=0;" edge="1" parent="1" source="m1grjG1mhNCWA4DFV6zn-37" target="m1grjG1mhNCWA4DFV6zn-66">
          <mxGeometry width="50" height="50" relative="1" as="geometry">
            <mxPoint x="610" y="660" as="sourcePoint" />
            <mxPoint x="800" y="840" as="targetPoint" />
            <Array as="points">
              <mxPoint x="800" y="590" />
              <mxPoint x="800" y="840" />
            </Array>
          </mxGeometry>
        </mxCell>
        <mxCell id="m1grjG1mhNCWA4DFV6zn-73" value="sum-=30" style="ellipse;whiteSpace=wrap;html=1;" vertex="1" parent="1">
          <mxGeometry x="558.12" y="960" width="53.75" height="40" as="geometry" />
        </mxCell>
        <mxCell id="m1grjG1mhNCWA4DFV6zn-75" value="i++" style="ellipse;whiteSpace=wrap;html=1;" vertex="1" parent="1">
          <mxGeometry x="717" y="965" width="40" height="30" as="geometry" />
        </mxCell>
        <mxCell id="m1grjG1mhNCWA4DFV6zn-77" value="" style="endArrow=classic;html=1;rounded=0;entryX=0;entryY=0.5;entryDx=0;entryDy=0;" edge="1" parent="1" target="m1grjG1mhNCWA4DFV6zn-75">
          <mxGeometry width="50" height="50" relative="1" as="geometry">
            <mxPoint x="611.87" y="980" as="sourcePoint" />
            <mxPoint x="661.87" y="930" as="targetPoint" />
          </mxGeometry>
        </mxCell>
        <mxCell id="m1grjG1mhNCWA4DFV6zn-78" value="" style="endArrow=classic;html=1;rounded=0;entryX=0.951;entryY=0.297;entryDx=0;entryDy=0;entryPerimeter=0;" edge="1" parent="1" target="m1grjG1mhNCWA4DFV6zn-8">
          <mxGeometry width="50" height="50" relative="1" as="geometry">
            <mxPoint x="757" y="980" as="sourcePoint" />
            <mxPoint x="840" y="198.1818181818182" as="targetPoint" />
            <Array as="points">
              <mxPoint x="840" y="980" />
              <mxPoint x="840" y="239" />
            </Array>
          </mxGeometry>
        </mxCell>
      </root>
    </mxGraphModel>
  </diagram>
</mxfile>
